<svg width="15" height="15" viewBox="0 0 31 41" fill="none" xmlns="http://www.w3.org/2000/svg">
<path d="M15.5 40.85C14.3667 40.85 13.4083 40.4583 12.625 39.675C11.8417 38.8917 11.45 37.9333 11.45 36.8H19.55C19.55 37.9333 19.1583 38.8917 18.375 39.675C17.5917 40.4583 16.6333 40.85 15.5 40.85ZM7.4 33.7V30.7H23.6V33.7H7.4ZM7.65 27.65C5.45 26.2167 3.70833 24.425 2.425 22.275C1.14167 20.125 0.5 17.7 0.5 15C0.5 10.9333 1.98333 7.41667 4.95 4.45C7.91667 1.48333 11.4333 0 15.5 0C19.5667 0 23.0833 1.48333 26.05 4.45C29.0167 7.41667 30.5 10.9333 30.5 15C30.5 17.7 29.8667 20.125 28.6 22.275C27.3333 24.425 25.5833 26.2167 23.35 27.65H7.65ZM8.75 24.65H22.3C23.9 23.5833 25.1667 22.2 26.1 20.5C27.0333 18.8 27.5 16.9667 27.5 15C27.5 11.7 26.325 8.875 23.975 6.525C21.625 4.175 18.8 3 15.5 3C12.2 3 9.375 4.175 7.025 6.525C4.675 8.875 3.5 11.7 3.5 15C3.5 16.9667 3.96667 18.8 4.9 20.5C5.83333 22.2 7.11667 23.5833 8.75 24.65Z" fill="white"/>
</svg>
