<svg width="15" height="15" viewBox="0 0 41 40" fill="none" xmlns="http://www.w3.org/2000/svg">
<path d="M17.7 40C16 40 14.7083 39.4917 13.825 38.475C12.9417 37.4583 12.5 36.3 12.5 35C12.5 34.1333 12.6917 33.2917 13.075 32.475C13.4583 31.6583 14.05 30.9833 14.85 30.45C15.5833 29.9833 16.1917 29.3583 16.675 28.575C17.1583 27.7917 17.5167 26.7167 17.75 25.35C17.7167 25.35 17.7 25.3417 17.7 25.325C17.7 25.3083 17.6667 25.2833 17.6 25.25L11.8 27.3C11.2333 27.5 10.6833 27.6667 10.15 27.8C9.61667 27.9333 9.06667 28 8.5 28C6.4 28 4.54167 27.0833 2.925 25.25C1.30833 23.4167 0.5 20.7333 0.5 17.2C0.5 15.5 1.00833 14.2083 2.025 13.325C3.04167 12.4417 4.18333 12 5.45 12C6.31667 12 7.16667 12.1917 8 12.575C8.83333 12.9583 9.51667 13.55 10.05 14.35C10.5167 15.0833 11.175 15.7083 12.025 16.225C12.875 16.7417 13.9167 17.0833 15.15 17.25C15.1833 17.2167 15.2083 17.1833 15.225 17.15C15.2417 17.1167 15.25 17.0833 15.25 17.05L13.2 11.3C13 10.7333 12.8333 10.1833 12.7 9.65C12.5667 9.11667 12.5 8.58333 12.5 8.05C12.5 5.91667 13.4167 4.04167 15.25 2.425C17.0833 0.808334 19.7667 0 23.3 0C25 0 26.2917 0.508333 27.175 1.525C28.0583 2.54167 28.5 3.68333 28.5 4.95C28.5 5.81667 28.3083 6.66667 27.925 7.5C27.5417 8.33333 26.95 9.01667 26.15 9.55C25.2833 10.1167 24.6083 10.8667 24.125 11.8C23.6417 12.7333 23.3667 13.7 23.3 14.7C23.3333 14.7333 23.3583 14.7417 23.375 14.725C23.3917 14.7083 23.4167 14.7333 23.45 14.8L29.2 12.65C29.7667 12.45 30.3083 12.2917 30.825 12.175C31.3417 12.0583 31.8833 12 32.45 12C35.15 12 37.1667 13.1167 38.5 15.35C39.8333 17.5833 40.5 20.0667 40.5 22.8C40.5 24.5 39.9667 25.7917 38.9 26.675C37.8333 27.5583 36.65 28 35.35 28C34.5167 28 33.7083 27.8083 32.925 27.425C32.1417 27.0417 31.4833 26.45 30.95 25.65C30.4833 24.9167 29.8583 24.3083 29.075 23.825C28.2917 23.3417 27.2167 22.9667 25.85 22.7L25.775 22.85C25.7583 22.8833 25.7333 22.9167 25.7 22.95L27.8 28.7C28 29.2333 28.1667 29.7417 28.3 30.225C28.4333 30.7083 28.5 31.2167 28.5 31.75C28.5333 33.9167 27.6333 35.8333 25.8 37.5C23.9667 39.1667 21.2667 40 17.7 40ZM20.5 23C21.3333 23 22.0417 22.7083 22.625 22.125C23.2083 21.5417 23.5 20.8333 23.5 20C23.5 19.1667 23.2083 18.4583 22.625 17.875C22.0417 17.2917 21.3333 17 20.5 17C19.6667 17 18.9583 17.2917 18.375 17.875C17.7917 18.4583 17.5 19.1667 17.5 20C17.5 20.8333 17.7917 21.5417 18.375 22.125C18.9583 22.7083 19.6667 23 20.5 23ZM17.6 14.75C18 14.5833 18.4333 14.4333 18.9 14.3C19.3667 14.1667 19.8333 14.0667 20.3 14C20.5667 12.5 21.0583 11.15 21.775 9.95C22.4917 8.75 23.4 7.78333 24.5 7.05C24.8333 6.81667 25.0833 6.525 25.25 6.175C25.4167 5.825 25.5 5.41667 25.5 4.95C25.5 4.41667 25.325 3.95833 24.975 3.575C24.625 3.19167 24.0667 3 23.3 3C21.8667 3 20.225 3.34167 18.375 4.025C16.525 4.70833 15.5667 6.05 15.5 8.05C15.5 8.41667 15.5417 8.76667 15.625 9.1C15.7083 9.43333 15.8 9.73333 15.9 10L17.6 14.75ZM8.5 25C8.96667 25 9.63333 24.8667 10.5 24.6L15.25 22.9C14.9833 22.4333 14.7917 21.9667 14.675 21.5C14.5583 21.0333 14.5 20.6 14.5 20.2C13 19.9333 11.65 19.4417 10.45 18.725C9.25 18.0083 8.28333 17.1 7.55 16C7.31667 15.6667 7 15.4167 6.6 15.25C6.2 15.0833 5.81667 15 5.45 15C4.81667 15 4.33333 15.175 4 15.525C3.66667 15.875 3.5 16.4333 3.5 17.2C3.5 19.2667 3.925 21.0833 4.775 22.65C5.625 24.2167 6.86667 25 8.5 25ZM17.7 37C19.4667 37 21.2083 36.6167 22.925 35.85C24.6417 35.0833 25.5 33.7667 25.5 31.9C25.5 31.5333 25.4667 31.2167 25.4 30.95C25.3333 30.6833 25.2333 30.3667 25.1 30L23.4 25.25C22.9667 25.45 22.525 25.6167 22.075 25.75C21.625 25.8833 21.1667 25.9667 20.7 26C20.4333 27.5 19.9417 28.85 19.225 30.05C18.5083 31.25 17.6 32.2167 16.5 32.95C16.2 33.15 15.9583 33.4583 15.775 33.875C15.5917 34.2917 15.5 34.6833 15.5 35.05C15.5333 35.55 15.7167 36 16.05 36.4C16.3833 36.8 16.9333 37 17.7 37ZM35.35 25C35.9167 25 36.4167 24.85 36.85 24.55C37.2833 24.25 37.5 23.6667 37.5 22.8C37.5 21.3333 37.1583 19.6833 36.475 17.85C35.7917 16.0167 34.4333 15.0667 32.4 15C32.0333 15 31.6917 15.0333 31.375 15.1C31.0583 15.1667 30.7667 15.25 30.5 15.35L25.75 17.1C25.9167 17.3667 26.0833 17.7917 26.25 18.375C26.4167 18.9583 26.5 19.4333 26.5 19.8C28 20.0667 29.35 20.5583 30.55 21.275C31.75 21.9917 32.7167 22.9 33.45 24C33.65 24.2667 33.925 24.5 34.275 24.7C34.625 24.9 34.9833 25 35.35 25Z" fill="white"/>
</svg>
